<?xml version="1.0" encoding="UTF-8" standalone="no"?>
<!DOCTYPE svg PUBLIC "-//W3C//DTD SVG 1.1//EN" "http://www.w3.org/Graphics/SVG/1.1/DTD/svg11.dtd">
<svg version="1.1" xmlns="http://www.w3.org/2000/svg" xmlns:xlink="http://www.w3.org/1999/xlink" preserveAspectRatio="xMidYMid meet" viewBox="-0.012162868151236239 448.17117808398086 486.0367498204139 89.691895774832" width="482.04" height="85.69"><defs><path d="M1.5 486.49C1.5 476.71 0.99 455.13 0.99 452.46C2.12 452.46 11.16 452.46 12.29 452.46C12.17 454.25 11.78 475.57 11.78 485.35C11.78 486.56 11.78 496.32 11.78 497.53C11.78 506.17 12.17 531.43 12.29 533.59C11.54 533.59 7.77 533.59 0.99 533.59C1.33 518.7 1.5 506.97 1.5 498.42C1.5 497.23 1.5 487.68 1.5 486.49ZM49.23 454.63C49.88 455.38 55.06 461.37 55.71 462.11C51.39 466.18 31.08 484.46 25.11 490.43C28.67 494.74 55.58 521.02 59.77 525.21C59.28 525.73 56.83 528.31 52.4 532.96C29.05 508.67 15.76 494.7 12.54 491.06C14.45 489.28 46.69 457.54 49.23 454.63Z" id="f1M0y8T3kR"></path><path d="M1.5 486.49C1.5 476.71 0.99 455.13 0.99 452.46C2.12 452.46 11.16 452.46 12.29 452.46C12.17 454.25 11.78 475.57 11.78 485.35C11.78 486.56 11.78 496.32 11.78 497.53C11.78 506.17 12.17 531.43 12.29 533.59C11.54 533.59 7.77 533.59 0.99 533.59C1.33 518.7 1.5 506.97 1.5 498.42C1.5 497.23 1.5 487.68 1.5 486.49ZM49.23 454.63C49.88 455.38 55.06 461.37 55.71 462.11C51.39 466.18 31.08 484.46 25.11 490.43C28.67 494.74 55.58 521.02 59.77 525.21C59.28 525.73 56.83 528.31 52.4 532.96C29.05 508.67 15.76 494.7 12.54 491.06C14.45 489.28 46.69 457.54 49.23 454.63Z" id="b1aEYepwLU"></path><path d="M109.92 449.68C119.82 465.67 146.48 516.46 154.22 528.13C153.27 528.76 145.65 533.84 144.7 534.48C142.42 530.16 130.48 507.05 129.21 505.28C125.3 505.44 94.02 506.65 90.11 506.8C88.71 508.96 79.58 530.67 77.67 534.48C77.04 534.1 73.92 532.2 68.27 528.76C94.01 478.92 107.8 452.55 109.66 449.68C109.69 449.68 109.89 449.68 109.92 449.68ZM93.92 499.44C96.04 499.35 106.66 498.88 125.79 498.05C115.71 478.92 110.29 468.76 109.53 467.58C107.88 470.12 94.93 497.66 93.92 499.44Z" id="c1hvzztFB"></path><path d="M109.92 449.68C119.82 465.67 146.48 516.46 154.22 528.13C153.27 528.76 145.65 533.84 144.7 534.48C142.42 530.16 130.48 507.05 129.21 505.28C125.3 505.44 94.02 506.65 90.11 506.8C88.71 508.96 79.58 530.67 77.67 534.48C77.04 534.1 73.92 532.2 68.27 528.76C94.01 478.92 107.8 452.55 109.66 449.68C109.69 449.68 109.89 449.68 109.92 449.68ZM93.92 499.44C96.04 499.35 106.66 498.88 125.79 498.05C115.71 478.92 110.29 468.76 109.53 467.58C107.88 470.12 94.93 497.66 93.92 499.44Z" id="c1WZ9Wfedm"></path><path d="M183.16 492.45C183.16 495.65 183.16 521.14 183.16 524.32C185.83 524.32 199.16 524.32 209.95 523.81C209.95 524.78 209.95 532.5 209.95 533.46C208.43 533.46 174.91 532.32 172.12 532.32C173.01 526.35 173.01 502.23 173.01 499.56C173.01 498.07 173.01 486.09 173.01 484.59C173.01 482.81 172.76 455.64 172.5 453.49C173.27 453.49 177.12 453.49 184.06 453.49C184.06 453.55 184.06 453.59 184.06 453.61C183.55 456.15 183.16 478.24 183.16 492.45Z" id="arEe5eS6B"></path><path d="M183.16 492.45C183.16 495.65 183.16 521.14 183.16 524.32C185.83 524.32 199.16 524.32 209.95 523.81C209.95 524.78 209.95 532.5 209.95 533.46C208.43 533.46 174.91 532.32 172.12 532.32C173.01 526.35 173.01 502.23 173.01 499.56C173.01 498.07 173.01 486.09 173.01 484.59C173.01 482.81 172.76 455.64 172.5 453.49C173.27 453.49 177.12 453.49 184.06 453.49C184.06 453.55 184.06 453.59 184.06 453.61C183.55 456.15 183.16 478.24 183.16 492.45Z" id="at8fnVgQs"></path><path d="M243.72 532.44C242.63 532.44 233.89 532.44 232.8 532.44C233.06 527.49 233.19 501.09 233.19 498.17C233.19 496.96 233.19 487.2 233.19 485.99C233.19 484.08 232.8 456.27 232.67 453.61C233.8 453.61 242.85 453.61 243.98 453.61C243.72 455.64 243.46 472.78 243.46 486.23C243.46 487.05 243.46 491.11 243.46 498.42C243.34 498.42 243.25 498.42 243.22 498.42C243.22 509.72 243.59 529.9 243.72 532.44Z" id="dDnUJOwEV"></path><path d="M243.72 532.44C242.63 532.44 233.89 532.44 232.8 532.44C233.06 527.49 233.19 501.09 233.19 498.17C233.19 496.96 233.19 487.2 233.19 485.99C233.19 484.08 232.8 456.27 232.67 453.61C233.8 453.61 242.85 453.61 243.98 453.61C243.72 455.64 243.46 472.78 243.46 486.23C243.46 487.05 243.46 491.11 243.46 498.42C243.34 498.42 243.25 498.42 243.22 498.42C243.22 509.72 243.59 529.9 243.72 532.44Z" id="b5iLo8GGu6"></path><path d="M277.74 449.17C280.91 452.72 335.38 509.47 339.06 513.02C339.06 509.85 339.7 456.79 339.83 453.1C340.87 453.16 349.19 453.55 350.23 453.61C349.73 460.34 347.69 506.42 347.19 534.86C347.16 534.86 346.96 534.86 346.93 534.86C343.88 531.81 286.89 473.41 284.6 470.49C284.6 474.43 283.71 529.53 283.84 533.21C283.14 533.16 279.63 532.9 273.3 532.44C275.67 484.63 277.07 456.87 277.49 449.17C277.51 449.17 277.72 449.17 277.74 449.17Z" id="anHBXm7CM"></path><path d="M277.74 449.17C280.91 452.72 335.38 509.47 339.06 513.02C339.06 509.85 339.7 456.79 339.83 453.1C340.87 453.16 349.19 453.55 350.23 453.61C349.73 460.34 347.69 506.42 347.19 534.86C347.16 534.86 346.96 534.86 346.93 534.86C343.88 531.81 286.89 473.41 284.6 470.49C284.6 474.43 283.71 529.53 283.84 533.21C283.14 533.16 279.63 532.9 273.3 532.44C275.67 484.63 277.07 456.87 277.49 449.17C277.51 449.17 277.72 449.17 277.74 449.17Z" id="ihxqRD2Mv"></path><path d="M408.38 454.76C445.07 459.33 449.64 475.7 449.64 483.57C449.64 518.48 405.21 532.96 379.56 532.96C380.07 527.75 380.19 499.82 380.19 496.78C380.19 495.86 380.19 491.24 380.19 482.93C380.11 465.51 379.94 455.73 379.69 453.61C386.16 453.61 398.6 453.49 408.38 454.76ZM390.22 462.11C390.22 466.18 390.22 486.49 390.22 523.05C422.39 509.18 438.46 496.99 438.46 486.49C438.46 469.35 419.42 461.74 390.22 462.11Z" id="a4mjpkFGoL"></path><path d="M408.38 454.76C445.07 459.33 449.64 475.7 449.64 483.57C449.64 518.48 405.21 532.96 379.56 532.96C380.07 527.75 380.19 499.82 380.19 496.78C380.19 495.86 380.19 491.24 380.19 482.93C380.11 465.51 379.94 455.73 379.69 453.61C386.16 453.61 398.6 453.49 408.38 454.76ZM390.22 462.11C390.22 466.18 390.22 486.49 390.22 523.05C422.39 509.18 438.46 496.99 438.46 486.49C438.46 469.35 419.42 461.74 390.22 462.11Z" id="aaiGYKSC0"></path><path d="M482.77 532.44C481.68 532.44 472.95 532.44 471.86 532.44C472.1 527.49 472.23 501.09 472.23 498.17C472.23 496.96 472.23 487.2 472.23 485.99C472.23 484.08 471.86 456.27 471.73 453.61C472.86 453.61 481.89 453.61 483.02 453.61C482.77 455.64 482.52 472.78 482.52 486.23C482.52 487.05 482.52 491.11 482.52 498.42C482.38 498.42 482.3 498.42 482.26 498.42C482.26 509.72 482.65 529.9 482.77 532.44Z" id="d26nZRRWYB"></path><path d="M482.77 532.44C481.68 532.44 472.95 532.44 471.86 532.44C472.1 527.49 472.23 501.09 472.23 498.17C472.23 496.96 472.23 487.2 472.23 485.99C472.23 484.08 471.86 456.27 471.73 453.61C472.86 453.61 481.89 453.61 483.02 453.61C482.77 455.64 482.52 472.78 482.52 486.23C482.52 487.05 482.52 491.11 482.52 498.42C482.38 498.42 482.3 498.42 482.26 498.42C482.26 509.72 482.65 529.9 482.77 532.44Z" id="eCf9dSJzG"></path></defs><g><g><use xlink:href="#f1M0y8T3kR" opacity="1" fill="#000000" fill-opacity="1"></use><g><use xlink:href="#f1M0y8T3kR" opacity="1" fill-opacity="0" stroke="#000000" stroke-width="1" stroke-opacity="0"></use></g></g><g><use xlink:href="#b1aEYepwLU" opacity="1" fill="#000000" fill-opacity="0"></use><g><use xlink:href="#b1aEYepwLU" opacity="1" fill-opacity="0" stroke="#000000" stroke-width="1" stroke-opacity="0"></use></g></g><g><use xlink:href="#c1hvzztFB" opacity="1" fill="#000000" fill-opacity="1"></use><g><use xlink:href="#c1hvzztFB" opacity="1" fill-opacity="0" stroke="#000000" stroke-width="1" stroke-opacity="0"></use></g></g><g><use xlink:href="#c1WZ9Wfedm" opacity="1" fill="#000000" fill-opacity="0"></use><g><use xlink:href="#c1WZ9Wfedm" opacity="1" fill-opacity="0" stroke="#000000" stroke-width="1" stroke-opacity="0"></use></g></g><g><use xlink:href="#arEe5eS6B" opacity="1" fill="#000000" fill-opacity="1"></use><g><use xlink:href="#arEe5eS6B" opacity="1" fill-opacity="0" stroke="#000000" stroke-width="1" stroke-opacity="0"></use></g></g><g><use xlink:href="#at8fnVgQs" opacity="1" fill="#000000" fill-opacity="0"></use><g><use xlink:href="#at8fnVgQs" opacity="1" fill-opacity="0" stroke="#000000" stroke-width="1" stroke-opacity="0"></use></g></g><g><use xlink:href="#dDnUJOwEV" opacity="1" fill="#000000" fill-opacity="1"></use><g><use xlink:href="#dDnUJOwEV" opacity="1" fill-opacity="0" stroke="#000000" stroke-width="1" stroke-opacity="0"></use></g></g><g><use xlink:href="#b5iLo8GGu6" opacity="1" fill="#000000" fill-opacity="0"></use><g><use xlink:href="#b5iLo8GGu6" opacity="1" fill-opacity="0" stroke="#000000" stroke-width="1" stroke-opacity="0"></use></g></g><g><use xlink:href="#anHBXm7CM" opacity="1" fill="#000000" fill-opacity="1"></use><g><use xlink:href="#anHBXm7CM" opacity="1" fill-opacity="0" stroke="#000000" stroke-width="1" stroke-opacity="0"></use></g></g><g><use xlink:href="#ihxqRD2Mv" opacity="1" fill="#000000" fill-opacity="0"></use><g><use xlink:href="#ihxqRD2Mv" opacity="1" fill-opacity="0" stroke="#000000" stroke-width="1" stroke-opacity="0"></use></g></g><g><use xlink:href="#a4mjpkFGoL" opacity="1" fill="#000000" fill-opacity="1"></use><g><use xlink:href="#a4mjpkFGoL" opacity="1" fill-opacity="0" stroke="#000000" stroke-width="1" stroke-opacity="0"></use></g></g><g><use xlink:href="#aaiGYKSC0" opacity="1" fill="#000000" fill-opacity="0"></use><g><use xlink:href="#aaiGYKSC0" opacity="1" fill-opacity="0" stroke="#000000" stroke-width="1" stroke-opacity="0"></use></g></g><g><use xlink:href="#d26nZRRWYB" opacity="1" fill="#000000" fill-opacity="1"></use><g><use xlink:href="#d26nZRRWYB" opacity="1" fill-opacity="0" stroke="#000000" stroke-width="1" stroke-opacity="0"></use></g></g><g><use xlink:href="#eCf9dSJzG" opacity="1" fill="#000000" fill-opacity="0"></use><g><use xlink:href="#eCf9dSJzG" opacity="1" fill-opacity="0" stroke="#000000" stroke-width="1" stroke-opacity="0"></use></g></g></g></svg>