<?xml version="1.0" encoding="UTF-8" standalone="no"?>
<!DOCTYPE svg PUBLIC "-//W3C//DTD SVG 1.1//EN" "http://www.w3.org/Graphics/SVG/1.1/DTD/svg11.dtd">
<svg version="1.1" xmlns="http://www.w3.org/2000/svg" xmlns:xlink="http://www.w3.org/1999/xlink" preserveAspectRatio="xMidYMid meet" viewBox="79.38399999999999 24.344 490.0160000000001 542.112" width="486.02" height="538.11"><defs><path d="M80.9 526.72C80.9 525.52 80.9 515.89 80.9 514.69C80.9 504.83 80.38 483.07 80.38 480.38C81.52 480.38 90.64 480.38 91.78 480.38C91.65 482.18 91.26 503.68 91.26 513.54C91.26 514.76 91.26 524.6 91.26 525.82C91.26 534.53 91.65 560 91.78 562.18C91.02 562.18 87.22 562.18 80.38 562.18C80.73 547.16 80.9 535.34 80.9 526.72ZM92.03 519.3C93.95 517.5 126.46 485.5 129.02 482.56C129.68 483.32 134.9 489.36 135.55 490.11C131.2 494.21 110.72 512.64 104.7 518.66C108.29 523.01 135.42 549.5 139.65 553.73C139.15 554.25 136.68 556.85 132.22 561.54C108.67 537.05 95.27 522.97 92.03 519.3Z" id="a6zF4hgG47"></path><path d="M189.95 477.57C189.98 477.57 190.18 477.57 190.21 477.57C200.19 493.7 227.07 544.9 234.88 556.67C233.92 557.31 226.24 562.43 225.28 563.07C222.98 558.72 210.94 535.42 209.66 533.63C205.72 533.79 174.18 535.01 170.24 535.17C168.83 537.34 159.62 559.23 157.7 563.07C157.06 562.69 153.91 560.77 148.22 557.31C174.17 507.05 188.07 480.47 189.95 477.57ZM189.82 495.62C188.16 498.18 175.1 525.95 174.08 527.74C176.22 527.65 186.93 527.18 206.21 526.34C196.05 507.05 190.59 496.81 189.82 495.62Z" id="aaStAc9Yq"></path><path d="M264.96 481.54C264.45 484.1 264.06 506.37 264.06 520.7C264.06 523.92 264.06 549.62 264.06 552.83C266.75 552.83 280.19 552.83 291.07 552.32C291.07 553.29 291.07 561.08 291.07 562.05C289.54 562.05 255.74 560.9 252.93 560.9C253.82 554.88 253.82 530.56 253.82 527.87C253.82 526.36 253.82 514.28 253.82 512.77C253.82 510.98 253.57 483.58 253.31 481.41C254.09 481.41 257.97 481.41 264.96 481.41C264.96 481.48 264.96 481.52 264.96 481.54Z" id="a35lN2bz4b"></path><path d="M324.61 526.72C324.61 538.11 324.99 558.46 325.12 561.02C324.02 561.02 315.21 561.02 314.11 561.02C314.37 556.03 314.5 529.41 314.5 526.46C314.5 525.24 314.5 515.4 314.5 514.18C314.5 512.26 314.11 484.22 313.98 481.54C315.12 481.54 324.24 481.54 325.38 481.54C325.12 483.58 324.86 500.86 324.86 514.43C324.86 515.25 324.86 519.35 324.86 526.72C324.73 526.72 324.64 526.72 324.61 526.72Z" id="a4lunaCv85"></path><path d="M359.17 477.06C359.19 477.06 359.4 477.06 359.42 477.06C362.62 480.64 417.54 537.86 421.25 541.44C421.25 538.24 421.89 484.74 422.02 481.02C423.07 481.08 431.46 481.48 432.51 481.54C432 488.32 429.95 534.78 429.44 563.46C429.41 563.46 429.21 563.46 429.18 563.46C426.11 560.38 368.64 501.5 366.34 498.56C366.34 502.53 365.44 558.08 365.57 561.79C364.86 561.74 361.32 561.48 354.94 561.02C357.33 512.81 358.74 484.82 359.17 477.06Z" id="d4o7EwNiko"></path><path d="M462.21 481.54C468.74 481.54 481.28 481.41 491.14 482.69C528.13 487.3 532.74 503.81 532.74 511.74C532.74 546.94 487.94 561.54 462.08 561.54C462.59 556.29 462.72 528.13 462.72 525.06C462.72 524.13 462.72 519.48 462.72 511.1C462.63 493.53 462.46 483.67 462.21 481.54ZM521.47 514.69C521.47 497.41 502.27 489.73 472.83 490.11C472.83 494.21 472.83 514.69 472.83 551.55C505.26 537.56 521.47 525.27 521.47 514.69Z" id="c4kd3ST6v"></path><path d="M565.63 526.72C565.63 538.11 566.02 558.46 566.14 561.02C565.04 561.02 556.24 561.02 555.14 561.02C555.39 556.03 555.52 529.41 555.52 526.46C555.52 525.24 555.52 515.4 555.52 514.18C555.52 512.26 555.14 484.22 555.01 481.54C556.15 481.54 565.26 481.54 566.4 481.54C566.14 483.58 565.89 500.86 565.89 514.43C565.89 515.25 565.89 519.35 565.89 526.72C565.75 526.72 565.67 526.72 565.63 526.72Z" id="a2KjDOGMGT"></path><path d="M320 139.39L179.07 384.77L80.38 440.58L320 25.34L320 139.39Z" id="a7cNXpWgNU"></path><path d="M326.53 139.39L467.58 384.77L566.14 440.58L326.53 25.34L326.53 139.39Z" id="m8CkQVvgjq"></path><path d="M83.58 445.7L562.94 445.7L464.38 389.89L182.4 389.63L83.58 445.7Z" id="a1gZH2HI1"></path></defs><g><g><use xlink:href="#a6zF4hgG47" opacity="1" fill="#000000" fill-opacity="1"></use><g><use xlink:href="#a6zF4hgG47" opacity="1" fill-opacity="0" stroke="#000000" stroke-width="1" stroke-opacity="0"></use></g></g><g><use xlink:href="#aaStAc9Yq" opacity="1" fill="#000000" fill-opacity="1"></use><g><use xlink:href="#aaStAc9Yq" opacity="1" fill-opacity="0" stroke="#000000" stroke-width="1" stroke-opacity="0"></use></g></g><g><use xlink:href="#a35lN2bz4b" opacity="1" fill="#000000" fill-opacity="1"></use><g><use xlink:href="#a35lN2bz4b" opacity="1" fill-opacity="0" stroke="#000000" stroke-width="1" stroke-opacity="0"></use></g></g><g><use xlink:href="#a4lunaCv85" opacity="1" fill="#000000" fill-opacity="1"></use><g><use xlink:href="#a4lunaCv85" opacity="1" fill-opacity="0" stroke="#000000" stroke-width="1" stroke-opacity="0"></use></g></g><g><use xlink:href="#d4o7EwNiko" opacity="1" fill="#000000" fill-opacity="1"></use><g><use xlink:href="#d4o7EwNiko" opacity="1" fill-opacity="0" stroke="#000000" stroke-width="1" stroke-opacity="0"></use></g></g><g><use xlink:href="#c4kd3ST6v" opacity="1" fill="#000000" fill-opacity="1"></use><g><use xlink:href="#c4kd3ST6v" opacity="1" fill-opacity="0" stroke="#000000" stroke-width="1" stroke-opacity="0"></use></g></g><g><use xlink:href="#a2KjDOGMGT" opacity="1" fill="#000000" fill-opacity="1"></use><g><use xlink:href="#a2KjDOGMGT" opacity="1" fill-opacity="0" stroke="#000000" stroke-width="1" stroke-opacity="0"></use></g></g><g><use xlink:href="#a7cNXpWgNU" opacity="1" fill="#f47522" fill-opacity="1"></use><g><use xlink:href="#a7cNXpWgNU" opacity="1" fill-opacity="0" stroke="#000000" stroke-width="1" stroke-opacity="0"></use></g></g><g><use xlink:href="#m8CkQVvgjq" opacity="1" fill="#f47522" fill-opacity="1"></use><g><use xlink:href="#m8CkQVvgjq" opacity="1" fill-opacity="0" stroke="#000000" stroke-width="1" stroke-opacity="0"></use></g></g><g><use xlink:href="#a1gZH2HI1" opacity="1" fill="#f47522" fill-opacity="1"></use><g><use xlink:href="#a1gZH2HI1" opacity="1" fill-opacity="0" stroke="#000000" stroke-width="1" stroke-opacity="0"></use></g></g></g></svg>